<?xml version="1.0" encoding="utf-8"?>
<!-- Generator: Adobe Illustrator 25.0.1, SVG Export Plug-In . SVG Version: 6.00 Build 0)  -->
<svg version="1.1" id="Layer_1" xmlns="http://www.w3.org/2000/svg" xmlns:xlink="http://www.w3.org/1999/xlink" x="0px" y="0px"
	 viewBox="0 0 16 16" style="enable-background:new 0 0 16 16;" xml:space="preserve">
<g>
	<g>
		<path d="M6.5,9.2l-1,4l4,1l1-4L6.5,9.2z M8.3,12.2L7.5,12l0.2-0.8l0.8,0.2L8.3,12.2z"/>
	</g>
</g>
<path d="M14.1,14.2l-3.9-7.6v-4h1v-1h-1v0l-0.5,0H5.2v1h1v4l-3.9,7.6c-0.2,0.5,0,1.1,0.5,1.3c0.1,0.1,0.3,0.1,0.4,0.1h10
	c0.6,0,1-0.4,1-1C14.2,14.5,14.1,14.3,14.1,14.2z M3.2,14.7c0,0,0,0,4-7.8V2.7l2,0v4.2l4,7.8L3.2,14.7z"/>
<g id="Layer_2">
</g>
</svg>
